<svg xmlns="http://www.w3.org/2000/svg" width="1080" height="1920" viewBox="0 0 1080 1920">
  <defs>
    <linearGradient id="bg" x1="0" x2="1" y1="0" y2="1">
      <stop offset="0" stop-color="#15191d"/>
      <stop offset="0.55" stop-color="#20262b"/>
      <stop offset="1" stop-color="#121417"/>
    </linearGradient>
  </defs>
  <rect width="1080" height="1920" fill="url(#bg)"/>
  <circle cx="116" cy="120" r="360" fill="#7dd8ff" opacity="0.16"/>
  <circle cx="940" cy="1710" r="280" fill="#f7d36b" opacity="0.12"/>
  <text x="80" y="168" fill="#a6b0b7" font-family="Arial, sans-serif" font-size="34" font-weight="700">SOLANA MOBILE</text>
  <text x="80" y="274" fill="#f6f7f3" font-family="Arial, sans-serif" font-size="112" font-weight="800">Rent Closer</text>
  <text x="80" y="346" fill="#d9e0e4" font-family="Arial, sans-serif" font-size="42">Find empty token accounts and reclaim rent.</text>

  <rect x="130" y="470" width="820" height="1160" rx="56" fill="#0f1215" stroke="#303841" stroke-width="8"/>
  <rect x="172" y="540" width="736" height="1020" rx="28" fill="#181c20"/>

  <text x="214" y="640" fill="#a6b0b7" font-family="Arial, sans-serif" font-size="26" font-weight="700">SOLANA SEEKER DAPP</text>
  <text x="214" y="724" fill="#f6f7f3" font-family="Arial, sans-serif" font-size="82" font-weight="800">Rent Closer</text>
  <rect x="214" y="790" width="652" height="138" rx="16" fill="#242b31"/>
  <text x="250" y="846" fill="#a6b0b7" font-family="Arial, sans-serif" font-size="26" font-weight="700">WALLET</text>
  <text x="250" y="892" fill="#f6f7f3" font-family="Arial, sans-serif" font-size="38" font-weight="700">Connect with Mobile Wallet Adapter</text>

  <rect x="214" y="984" width="196" height="146" rx="14" fill="#20262b"/>
  <rect x="442" y="984" width="196" height="146" rx="14" fill="#20262b"/>
  <rect x="670" y="984" width="196" height="146" rx="14" fill="#20262b"/>
  <text x="244" y="1044" fill="#a6b0b7" font-family="Arial, sans-serif" font-size="24" font-weight="700">ACCOUNTS</text>
  <text x="244" y="1100" fill="#9cf7c9" font-family="Arial, sans-serif" font-size="56" font-weight="800">--</text>
  <text x="472" y="1044" fill="#a6b0b7" font-family="Arial, sans-serif" font-size="24" font-weight="700">SELECTED</text>
  <text x="472" y="1100" fill="#7dd8ff" font-family="Arial, sans-serif" font-size="56" font-weight="800">--</text>
  <text x="700" y="1044" fill="#a6b0b7" font-family="Arial, sans-serif" font-size="24" font-weight="700">RENT</text>
  <text x="700" y="1100" fill="#f7d36b" font-family="Arial, sans-serif" font-size="46" font-weight="800">-- SOL</text>

  <rect x="214" y="1188" width="652" height="92" rx="16" fill="#9cf7c9"/>
  <text x="470" y="1248" fill="#121417" font-family="Arial, sans-serif" font-size="34" font-weight="800">Scan</text>
  <text x="214" y="1364" fill="#d9e0e4" font-family="Arial, sans-serif" font-size="30">Connect your wallet to scan empty token accounts.</text>

  <text x="80" y="1788" fill="#f6f7f3" font-family="Arial, sans-serif" font-size="54" font-weight="800">Connect. Scan. Reclaim.</text>
  <text x="80" y="1854" fill="#a6b0b7" font-family="Arial, sans-serif" font-size="34">Non-custodial Solana rent recovery.</text>
</svg>
